<?xml version="1.0"?>
<svg xmlns="http://www.w3.org/2000/svg" viewBox="0 0 512 512" width="512" height="512"><g id="outline"><circle cx="226" cy="168" r="10"/><circle cx="282" cy="168" r="10"/><path d="M248,200h16a8,8,0,0,0,0-16h-4.9l4.49-13.47a8,8,0,0,0-15.18-5.06l-8,24A8,8,0,0,0,248,200Z"/><path d="M268.423,205.067a27.908,27.908,0,0,1-24.846,0,8,8,0,0,0-7.154,14.312,43.993,43.993,0,0,0,39.154,0,8,8,0,0,0-7.154-14.312Z"/><path d="M488,40H400a8,8,0,0,0-8,8V208a8,8,0,0,0,8,8h32a8,8,0,0,0,5.656-2.343,14.646,14.646,0,0,1,20.688,0A8,8,0,0,0,464,216h24a8,8,0,0,0,8-8V48A8,8,0,0,0,488,40ZM408,56h72V160H408Zm72,144H467.03a30.691,30.691,0,0,0-38.06,0H408V176h72Z"/><path d="M464,88a8,8,0,0,0-8,8H424a8,8,0,0,0,0,16h12.686l13.657,13.657a8,8,0,0,0,11.314-11.314L459.314,112H464a8,8,0,0,0,8-8V96A8,8,0,0,0,464,88Z"/><path d="M37.316,245.51l29.563,24.636a8,8,0,0,0,10.242,0l29.563-24.636A59.084,59.084,0,0,0,128,200a56,56,0,0,0-112,0A59.084,59.084,0,0,0,37.316,245.51ZM72,160a40.045,40.045,0,0,1,40,40,43.122,43.122,0,0,1-15.559,33.218h0L72,253.586,47.559,233.218A43.122,43.122,0,0,1,32,200,40.045,40.045,0,0,1,72,160Z"/><path d="M57.561,219.17A23.805,23.805,0,0,0,71.949,224a24.472,24.472,0,0,0,3.4-.238,24,24,0,1,0-17.784-4.6Zm8.048-23.983a7.953,7.953,0,0,1,5.276-3.109A8.171,8.171,0,0,1,72.017,192a8,8,0,1,1-6.408,3.188Z"/><rect x="64" y="288" width="16" height="16"/><path d="M341.4,393.221a51.578,51.578,0,0,0,6.259-15.938l.9,1.261a51.232,51.232,0,0,0,91.394-17.354l14.582-58.338,20.911-4.18A25.586,25.586,0,0,0,470.42,248H430.77a27.412,27.412,0,0,0-26.377,20.146l-14.6,53.542-3.966-7.935h0l-4.44-8.882a59.353,59.353,0,0,0-23.178-24.8,82.913,82.913,0,0,0-6.791-88.858A37.263,37.263,0,0,1,344,168.97V128a88,88,0,1,0-176,0v22.131a23.943,23.943,0,0,0-2.748,32.827,36.8,36.8,0,0,1-4.671,8.262A82.932,82.932,0,0,0,150.308,272.7c.836,2.023,1.779,4.013,2.784,5.977A50.019,50.019,0,0,0,128,322v14H80V320H64v16H40a8,8,0,0,0-7.428,10.971L60.184,416H36a20.023,20.023,0,0,0-20,20v36a8,8,0,0,0,8,8H488a8,8,0,0,0,8-8V436a20.023,20.023,0,0,0-20-20H336V402.216Zm35.08-62.384,8.367,16.74a8,8,0,0,0,14.874-1.473l20.109-73.744A11.375,11.375,0,0,1,430.77,264h39.65a9.586,9.586,0,0,1,1.872,18.985l-25.86,5.17a8,8,0,0,0-6.194,5.905l-15.809,63.251A35.235,35.235,0,0,1,361.58,369.25l-9.8-13.717ZM184,128a72,72,0,0,1,144,0v40.97a53.347,53.347,0,0,0,10.62,31.85,66.9,66.9,0,0,1,4.692,73.112A60.05,60.05,0,0,0,328.189,272H296a7.979,7.979,0,0,1-8-8V247.39A64.023,64.023,0,0,0,320,192V152a8,8,0,0,0-8-8,80.534,80.534,0,0,1-51.462-18.632l-23.417-19.514a8,8,0,0,0-12.711,3.616,66.043,66.043,0,0,1-25.9,33.907l-.935.623H184Zm72,214.112L244.944,320h22.112ZM256,240a48.054,48.054,0,0,1-48-48V156.277a82.2,82.2,0,0,0,27.216-31.184L250.3,137.66A96.586,96.586,0,0,0,304,159.666V192A48.054,48.054,0,0,1,256,240Zm0,16a63.921,63.921,0,0,0,16-2.025V264a23.9,23.9,0,0,0,7.033,16.987,24.168,24.168,0,0,0,5.481,4.1L275.056,304H236.944l-9.465-18.929A24.019,24.019,0,0,0,240,264V253.975A63.921,63.921,0,0,0,256,256Zm-36.729,48.433,12.47,24.938L216.778,316.9Zm73.458,0,2.493,12.468-14.963,12.47ZM176,168a8.009,8.009,0,0,1,8-8h8v16h-8A8.009,8.009,0,0,1,176,168Zm-10.909,98.577a66.907,66.907,0,0,1,8.287-65.753,52.871,52.871,0,0,0,5.608-9.355A24.014,24.014,0,0,0,184,192h8a64.023,64.023,0,0,0,32,55.39V264a8.009,8.009,0,0,1-8,8H178a50,50,0,0,0-9.831.976A65.651,65.651,0,0,1,165.091,266.577ZM51.816,352H186.048l19.2,64H77.416ZM280,416H221.953l-4.8-16H274a6.006,6.006,0,0,1,6,6Zm200,20v28H32V436a4,4,0,0,1,4-4H476A4,4,0,0,1,480,436ZM296,416V406a22.025,22.025,0,0,0-22-22H212.353l-12.69-42.3A8,8,0,0,0,192,336H144V322a34.038,34.038,0,0,1,34-34h28.241l-6.086,30.431a8,8,0,0,0,2.724,7.715l48,40a8,8,0,0,0,10.088.125c.052-.041.1-.087.149-.129l0,0,48-40a8,8,0,0,0,2.724-7.715l-4.8-24.009-.013-.063L305.759,288h22.43a43.249,43.249,0,0,1,38.886,24.027l1.861,3.723-26.611,26.611a8,8,0,0,0-13.2,8.79,35.355,35.355,0,0,1-1.447,33.838l-6.537,10.9A8,8,0,0,0,320,400v16Z"/></g></svg>
